<svg preserveAspectRatio="none" width="100%" height="100%" overflow="visible" style="display: block;" viewBox="0 0 8400 1880.78" fill="none" xmlns="http://www.w3.org/2000/svg">
<g id="Ellipse 1329130913" filter="url(#filter0_f_0_62)">
<path d="M8200 1382.16C8200 2035.04 5404.5 1413.86 4200 1413.86C2995.5 1413.86 200 2035.04 200 1382.16C200 729.269 1990.86 200 4200 200C6409.14 200 8200 729.269 8200 1382.16Z" fill="var(--fill-0, #080911)"/>
<path d="M4200 250C5301.16 250 6296.16 381.971 7014.26 594.195C7373.63 700.403 7660.81 825.893 7857.02 962.993C8054.66 1101.09 8150 1243.52 8150 1382.16C8150 1441.39 8120.21 1488.59 8052.53 1527.67C7982.5 1568.11 7876.58 1596.39 7738.45 1612.9C7463.12 1645.81 7080.56 1629.86 6656.01 1593.03C6232.1 1556.26 5771.03 1499.16 5338.68 1451.03C4907.54 1403.03 4504.31 1363.87 4200 1363.87C3895.69 1363.87 3492.46 1403.03 3061.32 1451.03C2628.97 1499.16 2167.9 1556.26 1743.99 1593.03C1319.44 1629.86 936.876 1645.81 661.552 1612.9C523.416 1596.39 417.504 1568.11 347.475 1527.67C279.794 1488.59 250 1441.39 250 1382.16C250 1243.52 345.338 1101.09 542.979 962.993C739.191 825.893 1026.37 700.403 1385.74 594.195C2103.84 381.971 3098.84 250 4200 250Z" stroke="var(--stroke-0, #D10026)" stroke-width="100"/>
</g>
<defs>
<filter id="filter0_f_0_62" x="0" y="0" width="8400" height="1880.78" filterUnits="userSpaceOnUse" color-interpolation-filters="sRGB">
<feFlood flood-opacity="0" result="BackgroundImageFix"/>
<feBlend mode="normal" in="SourceGraphic" in2="BackgroundImageFix" result="shape"/>
<feGaussianBlur stdDeviation="100" result="effect1_foregroundBlur_0_62"/>
</filter>
</defs>
</svg>
