<svg preserveAspectRatio="none" width="100%" height="100%" overflow="visible" style="display: block;" viewBox="0 0 8320 2289.51" fill="none" xmlns="http://www.w3.org/2000/svg">
<g id="Ellipse 1329130913" filter="url(#filter0_f_0_71)">
<path d="M8160 1732.33C8160 2600.7 5725 1774.5 4160 1774.5C2595 1774.5 160 2600.7 160 1732.33C160 863.954 1950.86 160 4160 160C6369.14 160 8160 863.954 8160 1732.33Z" fill="var(--fill-0, #080911)"/>
<path d="M4160 200C5260.86 200 6255.67 375.469 6973.79 657.751C7332.98 798.94 7620.94 966.067 7818.43 1149.61C8015.87 1333.09 8120 1530.04 8120 1732.33C8120 1830.21 8086.3 1900.93 8026.08 1953.26C7964.2 2007.03 7871.08 2044.14 7748.12 2065.87C7501.89 2109.38 7153.99 2088.36 6751.71 2039.35C6349.87 1990.39 5900.87 1914.55 5450.88 1850.42C5002.24 1786.5 4554.26 1734.5 4160 1734.5C3765.74 1734.5 3317.76 1786.5 2869.12 1850.42C2419.13 1914.55 1970.13 1990.39 1568.29 2039.35C1166.01 2088.36 818.111 2109.38 571.882 2065.87C448.923 2044.14 355.8 2007.03 293.923 1953.26C233.696 1900.93 200 1830.21 200 1732.33C200 1530.04 304.133 1333.09 501.57 1149.61C699.062 966.067 987.022 798.94 1346.21 657.751C2064.33 375.469 3059.14 200 4160 200Z" stroke="var(--stroke-0, #0046D1)" stroke-width="80"/>
</g>
<defs>
<filter id="filter0_f_0_71" x="0" y="0" width="8320" height="2289.51" filterUnits="userSpaceOnUse" color-interpolation-filters="sRGB">
<feFlood flood-opacity="0" result="BackgroundImageFix"/>
<feBlend mode="normal" in="SourceGraphic" in2="BackgroundImageFix" result="shape"/>
<feGaussianBlur stdDeviation="80" result="effect1_foregroundBlur_0_71"/>
</filter>
</defs>
</svg>
