<svg width="506" height="158" viewBox="0 0 506 158" fill="none" xmlns="http://www.w3.org/2000/svg">
<g clip-path="url(#clip0_883_643)">
<path d="M236.018 62.9626C234.549 62.4198 233.698 61.8885 232.946 61.2533C232.18 60.6181 231.514 59.879 230.958 59.0821C230.403 58.2852 229.972 57.4306 229.663 56.5297C229.354 55.6289 229.182 54.6934 229.132 53.7464C229.095 52.7993 229.182 51.8523 229.404 50.9284C229.626 50.0044 229.983 49.1152 230.465 48.2836C230.946 47.4521 231.539 46.6783 232.229 45.9853C232.92 45.3039 233.71 44.7034 234.586 44.2068C235.463 43.7102 236.413 43.329 237.412 43.0634C238.399 42.7978 239.423 42.6592 240.497 42.6592H264.956C266.03 42.6592 267.054 42.7978 268.041 43.0634C269.029 43.329 269.99 43.7102 270.867 44.2068C271.743 44.7034 272.533 45.3039 273.224 45.9853C273.915 46.6667 274.52 47.4405 274.988 48.2836C275.47 49.1152 275.827 50.016 276.05 50.9284C276.272 51.8523 276.371 52.7993 276.321 53.7464C276.284 54.6934 276.099 55.6404 275.79 56.5297C275.482 57.4306 275.05 58.2852 274.495 59.0821C273.939 59.879 273.261 60.6181 272.508 61.2533C271.743 61.8885 270.904 62.4198 269.435 62.9626" stroke="white" stroke-linecap="round" stroke-linejoin="round"/>
<path d="M252.74 17.5977C251.888 17.5977 251.037 17.5746 250.173 17.54C249.198 17.4938 248.223 17.4361 247.248 17.3437C246.137 17.2513 245.04 17.1358 243.941 17.0087C242.694 16.8586 241.46 16.6969 240.226 16.5121C238.845 16.3158 237.463 16.0964 236.093 15.8538C234.55 15.5882 233.02 15.311 231.49 15.0223C229.787 14.6989 228.083 14.3409 226.381 13.9829C224.492 13.5786 222.605 13.1629 220.729 12.724C218.643 12.2505 216.557 11.7539 214.473 11.2573C212.153 10.7029 209.82 10.1485 207.501 9.60572C204.884 8.99362 202.243 8.39306 199.602 7.8387C196.974 7.28434 194.346 6.76463 191.692 6.29111C189.175 5.84069 186.645 5.43647 184.116 5.0669C181.376 4.66268 178.625 4.3162 175.873 3.99283C172.725 3.62325 169.567 3.29988 166.407 2.98805C163.051 2.66467 159.706 2.37594 156.35 2.13341C153.005 1.87933 149.662 1.67145 146.305 1.48666C142.924 1.30187 139.555 1.16328 136.174 1.04779C132.817 0.932299 129.46 0.851455 126.104 0.805258C122.797 0.759062 119.477 0.747512 116.183 0.759062C112.936 0.78216 109.704 0.828357 106.47 0.909201C103.311 0.990045 100.165 1.10554 97.0179 1.25568C93.8957 1.40581 90.7861 1.5906 87.6886 1.79849C84.5541 2.01792 81.4445 2.26045 78.347 2.53763C75.2496 2.81481 72.1645 3.11509 69.1042 3.45002C66.0561 3.77339 63.0204 4.13142 60.0217 4.47789C57.0724 4.82437 54.1478 5.18239 51.2354 5.52887C49.9397 5.67901 48.644 5.84069 47.3606 5.99083C45.8797 6.16407 44.399 6.33731 42.9181 6.51055C40.2896 6.82237 37.6735 7.1111 35.0821 7.39983C32.6016 7.67701 30.1336 7.94264 27.6902 8.18517C26.2464 8.33531 24.815 8.4739 23.3834 8.61249C22.0137 8.73953 20.6563 8.86657 19.3112 8.98207C18.0155 9.09756 16.7321 9.2015 15.461 9.29389C13.9802 9.40939 12.6475 9.49023 11.5122 9.61727C10.3768 9.74431 9.42663 9.89445 8.59983 10.0908C7.76069 10.2871 7.04496 10.5297 6.40326 10.8068C5.77391 11.084 5.23094 11.3958 4.71264 11.7539C4.19435 12.1119 3.71309 12.5161 3.21947 13.0705C2.72587 13.6364 2.23225 14.3524 1.86205 15.1378C1.49183 15.9347 1.25737 16.8009 1.10929 17.8403C0.961205 18.8797 0.899504 20.0693 0.850142 21.2126C0.800781 22.356 0.800781 23.4301 0.800781 24.5388C0.800781 25.6475 0.837803 26.8024 0.837803 27.9111C0.837803 29.0199 0.837803 30.1055 0.837803 31.0525C0.837803 31.9996 0.924184 32.8426 1.07227 33.6626C1.22036 34.4826 1.44247 35.2795 1.788 36.088C1.89907 36.342 2.02247 36.6077 2.17055 36.8617C2.46672 37.393 2.79991 37.9012 3.17011 38.3516C3.71309 39.0099 4.30542 39.5065 4.99647 39.9569C5.68752 40.4073 6.4773 40.8116 7.4275 41.1465C8.3777 41.4814 9.50067 41.7586 10.8335 41.9087C12.1168 42.0473 13.5977 42.0589 15.3252 42.1628C15.8559 42.1975 16.2878 42.2206 16.7197 42.2668C17.127 42.3014 17.5218 42.336 17.9291 42.3822C18.2993 42.4284 18.6695 42.4746 19.0397 42.5208C19.4716 42.5786 19.8912 42.6594 20.3107 42.7403C20.6809 42.8096 21.0511 42.902 21.4213 42.9944C21.7422 43.0752 22.063 43.1791 22.3839 43.2831C22.6678 43.387 22.9515 43.491 23.2231 43.6065C23.4822 43.722 23.729 43.8374 23.9758 43.976C24.2102 44.1031 24.4448 44.2417 24.6792 44.3803C24.9013 44.5188 25.1235 44.6805 25.3456 44.8422C25.5677 45.0039 25.7774 45.1771 25.9873 45.3619C26.1971 45.5467 26.4068 45.7431 26.6166 45.9509C26.8264 46.1704 27.0362 46.4014 27.246 46.6323C27.4681 46.8864 27.6779 47.152 27.8877 47.4292C28.1221 47.7411 28.3319 48.0529 28.5418 48.3763C28.7762 48.7458 29.0106 49.127 29.2204 49.5081C29.4672 49.947 29.7017 50.3974 29.9115 50.8478C30.1583 51.3675 30.3927 51.8872 30.6149 52.43C30.8617 53.0421 31.0961 53.6542 31.3306 54.2779C31.5774 54.9824 31.8119 55.6984 32.0464 56.4145C32.2931 57.2229 32.5399 58.0314 32.762 58.8398C33.0212 59.7522 33.2557 60.653 33.5025 61.577C33.7617 62.5933 34.0208 63.6096 34.2676 64.6375C34.539 65.7809 34.8106 66.9127 35.0574 68.056C35.3412 69.3149 35.6127 70.5853 35.8718 71.8557C36.1679 73.2532 36.4518 74.6506 36.748 76.0596C37.6365 80.3559 38.4263 84.248 39.1173 87.4817C39.8084 90.7271 40.3883 93.3025 41.0424 95.9704C41.6965 98.6382 42.4121 101.375 43.1772 103.951C43.93 106.526 44.7198 108.94 45.5466 111.204C46.3733 113.467 47.2372 115.604 48.1874 117.741C49.1377 119.877 50.1742 122.014 51.5439 124.37C52.9138 126.726 54.592 129.313 56.295 131.588C57.9979 133.863 59.7132 135.815 61.811 137.778C63.9089 139.742 66.377 141.717 68.8697 143.403C71.3624 145.089 73.8675 146.498 77.3721 147.988C80.8768 149.478 85.3809 151.06 89.1571 152.18C92.9209 153.289 95.9565 153.936 99.708 154.559C103.459 155.183 107.927 155.795 112.27 156.176C116.614 156.557 120.859 156.731 124.784 156.8C128.708 156.881 132.323 156.858 135.877 156.742C139.431 156.627 142.924 156.419 146.033 156.153C149.143 155.887 151.871 155.587 154.918 155.137C157.966 154.686 161.335 154.097 164.593 153.347C167.863 152.596 171.023 151.695 173.824 150.748C176.625 149.813 179.069 148.831 181.697 147.572C184.325 146.302 187.126 144.742 189.841 142.929C192.557 141.116 195.16 139.037 197.715 136.67C200.257 134.302 202.736 131.634 205.033 128.724C207.315 125.813 209.413 122.66 211.153 119.796C212.906 116.932 214.324 114.357 215.929 111.158C217.533 107.958 219.334 104.124 220.803 100.821C222.272 97.518 223.395 94.7462 224.381 92.3093C225.357 89.884 226.183 87.7936 226.949 85.8418C227.714 83.8899 228.418 82.0652 229.133 80.2058C229.848 78.3464 230.564 76.4638 231.391 74.3619C232.218 72.2599 233.143 69.9501 233.958 67.9752C234.76 66.0349 235.451 64.4181 236.056 62.9513C238.943 55.9641 246.669 56.2643 252.777 56.2528C258.885 56.2528 266.61 55.9641 269.497 62.9513C270.103 64.4181 270.793 66.0349 271.595 67.9752C272.41 69.9501 273.348 72.2599 274.162 74.3619C274.989 76.4638 275.705 78.3579 276.42 80.2058C277.137 82.0652 277.84 83.8899 278.604 85.8418C279.37 87.7936 280.197 89.8724 281.172 92.3093C282.146 94.7346 283.282 97.518 284.75 100.821C286.219 104.124 288.021 107.947 289.624 111.158C291.229 114.357 292.649 116.932 294.4 119.796C296.153 122.66 298.238 125.813 300.533 128.724C302.817 131.634 305.296 134.302 307.851 136.67C310.394 139.037 313.009 141.116 315.724 142.929C318.44 144.742 321.241 146.302 323.869 147.572C326.497 148.842 328.941 149.813 331.742 150.748C334.543 151.684 337.715 152.596 340.973 153.347C344.242 154.097 347.6 154.686 350.647 155.137C353.695 155.587 356.423 155.899 359.532 156.153C362.642 156.419 366.134 156.627 369.689 156.742C373.242 156.858 376.858 156.869 380.782 156.8C384.706 156.719 388.939 156.557 393.296 156.176C397.639 155.795 402.106 155.183 405.858 154.559C409.609 153.936 412.645 153.3 416.408 152.18C420.172 151.071 424.689 149.489 428.194 147.988C431.698 146.498 434.204 145.089 436.696 143.403C439.189 141.717 441.657 139.742 443.755 137.778C445.852 135.815 447.568 133.852 449.271 131.588C450.974 129.313 452.664 126.737 454.022 124.37C455.392 122.014 456.428 119.877 457.378 117.741C458.328 115.604 459.192 113.479 460.019 111.204C460.846 108.929 461.624 106.526 462.388 103.951C463.142 101.375 463.87 98.6267 464.523 95.9704C465.177 93.3025 465.757 90.7155 466.449 87.4817C467.14 84.2364 467.93 80.3444 468.818 76.0596C469.102 74.6622 469.397 73.2532 469.694 71.8557C469.965 70.5853 470.225 69.3264 470.509 68.056C470.768 66.9127 471.026 65.7693 471.299 64.6375C471.545 63.6212 471.805 62.5933 472.063 61.577C472.298 60.6646 472.544 59.7522 472.804 58.8398C473.039 58.0198 473.272 57.2114 473.519 56.4145C473.741 55.6984 473.976 54.9824 474.235 54.2779C474.457 53.6542 474.692 53.0421 474.951 52.43C475.173 51.8988 475.407 51.3675 475.654 50.8478C475.876 50.3974 476.111 49.947 476.346 49.5081C476.555 49.127 476.79 48.7458 477.024 48.3763C477.234 48.0529 477.456 47.7295 477.678 47.4292C477.888 47.152 478.098 46.8864 478.32 46.6323C478.517 46.4014 478.727 46.1704 478.949 45.9509C479.147 45.7431 479.356 45.5467 479.578 45.3619C479.789 45.1771 479.998 45.0039 480.22 44.8422C480.442 44.6805 480.665 44.5304 480.887 44.3803C481.121 44.2301 481.356 44.1031 481.589 43.976C481.837 43.849 482.084 43.722 482.343 43.6065C482.614 43.491 482.898 43.3755 483.182 43.2831C483.502 43.1676 483.824 43.0752 484.144 42.9944C484.514 42.902 484.885 42.8096 485.255 42.7403C485.675 42.6594 486.106 42.5901 486.526 42.5208C486.896 42.4631 487.266 42.4169 487.637 42.3822C488.044 42.336 488.439 42.3014 488.846 42.2668C489.278 42.2321 489.71 42.1975 490.241 42.1628C491.968 42.0589 493.449 42.0473 494.733 41.9087C496.065 41.7701 497.188 41.493 498.138 41.1465C499.088 40.8116 499.878 40.4073 500.57 39.9569C501.26 39.5065 501.853 38.9983 502.395 38.3516C502.766 37.9127 503.099 37.393 503.395 36.8617C503.531 36.6077 503.655 36.3536 503.778 36.088C504.135 35.2911 504.357 34.4826 504.494 33.6626C504.641 32.8426 504.703 32.0111 504.728 31.0525C504.752 30.0939 504.741 29.0199 504.741 27.9111C504.752 26.8024 504.777 25.6475 504.777 24.5388C504.79 23.4301 504.765 22.356 504.728 21.2126C504.691 20.0693 504.617 18.8797 504.468 17.8403C504.321 16.8009 504.086 15.9347 503.716 15.1378C503.346 14.3409 502.852 13.6248 502.359 13.0705C501.865 12.5046 501.371 12.1119 500.865 11.7539C500.347 11.3958 499.804 11.084 499.174 10.8068C498.546 10.5297 497.818 10.2871 496.979 10.0908C496.14 9.89445 495.201 9.74431 494.066 9.61727C492.931 9.49023 491.61 9.40939 490.117 9.29389C488.846 9.2015 487.562 9.09756 486.267 8.98207C484.922 8.86657 483.564 8.73953 482.195 8.61249C480.763 8.4739 479.332 8.33531 477.888 8.18517C475.445 7.93109 472.977 7.66546 470.496 7.39983C467.905 7.1111 465.3 6.81082 462.66 6.51055C461.191 6.33731 459.711 6.16407 458.217 5.99083C456.934 5.84069 455.638 5.67901 454.342 5.52887C451.43 5.18239 448.506 4.82437 445.557 4.47789C442.545 4.11987 439.522 3.77339 436.474 3.45002C433.414 3.12664 430.329 2.81481 427.231 2.53763C424.134 2.26045 421.011 2.01792 417.89 1.79849C414.792 1.5906 411.682 1.40581 408.56 1.25568C405.426 1.10554 402.267 0.990045 399.107 0.909201C395.875 0.828357 392.641 0.770611 389.396 0.759062C386.101 0.735963 382.782 0.759062 379.475 0.805258C376.117 0.851455 372.761 0.932299 369.405 1.04779C366.036 1.16328 362.655 1.31342 359.273 1.48666C355.928 1.67145 352.585 1.87933 349.229 2.13341C345.871 2.38749 342.515 2.67622 339.171 2.98805C336.012 3.28833 332.853 3.62325 329.706 3.99283C326.954 4.3162 324.202 4.66268 321.463 5.0669C318.933 5.43647 316.403 5.84069 313.886 6.29111C311.233 6.76463 308.604 7.28434 305.975 7.8387C303.334 8.40461 300.694 8.99362 298.078 9.60572C295.745 10.1485 293.426 10.7029 291.106 11.2573C289.02 11.7539 286.934 12.2505 284.849 12.724C282.961 13.1513 281.085 13.5786 279.197 13.9829C277.494 14.3409 275.792 14.6874 274.089 15.0223C272.558 15.3226 271.028 15.5997 269.486 15.8538C268.116 16.0848 266.734 16.3042 265.351 16.5121C264.117 16.6969 262.883 16.8586 261.637 17.0087C260.539 17.1358 259.44 17.2513 258.33 17.3437C257.355 17.4245 256.38 17.4938 255.405 17.54C254.431 17.5746 253.579 17.5977 252.727 17.5977H252.74Z" stroke="white" stroke-width="1.5" stroke-linecap="round" stroke-linejoin="round"/>
</g>
<defs>
<clipPath id="clip0_883_643">
<rect width="506" height="158" fill="white"/>
</clipPath>
</defs>
</svg>
