<svg preserveAspectRatio="none" width="100%" height="100%" overflow="visible" style="display: block;" viewBox="0 0 8400 2369.51" fill="none" xmlns="http://www.w3.org/2000/svg">
<g id="Ellipse 1329130915" filter="url(#filter0_f_0_42)">
<path d="M8200 1772.33C8200 2640.7 5765 1814.5 4200 1814.5C2635 1814.5 200 2640.7 200 1772.33C200 903.954 1990.86 200 4200 200C6409.14 200 8200 903.954 8200 1772.33Z" fill="var(--fill-0, #080911)"/>
<path d="M4200 250C5299.93 250 6293.44 425.339 7010.14 707.058C7368.63 847.977 7655.36 1014.54 7851.62 1196.93C8047.82 1379.26 8150 1573.74 8150 1772.33C8150 1867.54 8117.39 1935.42 8059.52 1985.71C7999.58 2037.8 7908.49 2074.45 7786.38 2096.02C7541.78 2139.24 7195.22 2118.43 6792.92 2069.42C6391.16 2020.47 5942.69 1944.7 5492.29 1880.53C5043.58 1816.59 4595.01 1764.5 4200 1764.5C3804.99 1764.5 3356.42 1816.59 2907.71 1880.53C2457.31 1944.7 2008.84 2020.47 1607.08 2069.42C1204.78 2118.43 858.225 2139.24 613.622 2096.02C491.515 2074.45 400.419 2037.8 340.481 1985.71C282.608 1935.42 250 1867.54 250 1772.33C250 1573.74 352.184 1379.26 548.378 1196.93C744.64 1014.54 1031.37 847.977 1389.86 707.058C2106.56 425.339 3100.07 250 4200 250Z" stroke="var(--stroke-0, #D10026)" stroke-width="100"/>
</g>
<defs>
<filter id="filter0_f_0_42" x="0" y="0" width="8400" height="2369.51" filterUnits="userSpaceOnUse" color-interpolation-filters="sRGB">
<feFlood flood-opacity="0" result="BackgroundImageFix"/>
<feBlend mode="normal" in="SourceGraphic" in2="BackgroundImageFix" result="shape"/>
<feGaussianBlur stdDeviation="100" result="effect1_foregroundBlur_0_42"/>
</filter>
</defs>
</svg>
