<svg width="1633" height="293" viewBox="0 0 1633 293" fill="none" xmlns="http://www.w3.org/2000/svg">
<path d="M-0.000193834 -0.000103951H182.8V25.9999H29.5998V122H152.4V148H29.5998V288.4H-0.000193834V-0.000103951ZM210.5 288.4V80.7999H237.3V288.4H210.5ZM223.7 41.5999C218.1 41.5999 213.433 39.7332 209.7 35.9999C205.966 31.9999 204.1 27.1999 204.1 21.5999C204.1 16.2666 205.966 11.7332 209.7 7.99989C213.433 3.99989 218.1 1.99989 223.7 1.99989C229.3 1.99989 233.966 3.99989 237.7 7.99989C241.7 11.7332 243.7 16.2666 243.7 21.5999C243.7 27.1999 241.7 31.9999 237.7 35.9999C233.966 39.7332 229.3 41.5999 223.7 41.5999ZM275.844 107.2L266.644 82.3999V80.7999H293.844L294.644 82.3999L303.444 107.2L357.444 258L410.644 107.2L419.044 82.3999L419.844 80.7999H447.844V82.3999L438.644 107.2L372.644 288.4H342.644L275.844 107.2ZM457.094 184.4C457.094 163.6 461.227 145.067 469.494 128.8C477.76 112.267 489.227 99.4666 503.894 90.3999C518.827 81.3332 535.894 76.7999 555.094 76.7999C577.227 76.7999 595.094 81.7332 608.694 91.5999C622.56 101.467 632.427 113.733 638.294 128.4C644.16 143.067 647.094 157.867 647.094 172.8C647.094 176 646.827 180.267 646.294 185.6H484.694C484.96 210.933 491.627 231.067 504.694 246C518.027 260.667 535.36 268 556.694 268C573.494 268 586.96 264.267 597.094 256.8C607.494 249.333 614.827 237.733 619.094 222L646.694 231.6C640.827 250.533 630.027 265.467 614.294 276.4C598.56 287.067 579.227 292.4 556.294 292.4C537.094 292.4 519.894 287.867 504.694 278.8C489.76 269.467 478.027 256.667 469.494 240.4C461.227 223.867 457.094 205.2 457.094 184.4ZM618.294 163.6C616.96 144.133 610.694 128.667 599.494 117.2C588.294 105.733 573.494 99.9999 555.094 99.9999C536.427 99.9999 521.094 105.733 509.094 117.2C497.094 128.667 489.494 144.133 486.294 163.6H618.294ZM835.422 167.2L749.022 25.5999L734.222 1.5999V-0.000103951H766.622L767.422 1.5999L782.222 25.5999L850.622 139.2L919.822 25.5999L934.222 1.5999L935.422 -0.000103951H966.622V1.5999L865.022 167.2V288.4H835.422V167.2ZM934.437 184.4C934.437 163.6 938.571 145.067 946.837 128.8C955.104 112.267 966.571 99.4666 981.237 90.3999C996.171 81.3332 1013.24 76.7999 1032.44 76.7999C1054.57 76.7999 1072.44 81.7332 1086.04 91.5999C1099.9 101.467 1109.77 113.733 1115.64 128.4C1121.5 143.067 1124.44 157.867 1124.44 172.8C1124.44 176 1124.17 180.267 1123.64 185.6H962.037C962.304 210.933 968.971 231.067 982.037 246C995.371 260.667 1012.7 268 1034.04 268C1050.84 268 1064.3 264.267 1074.44 256.8C1084.84 249.333 1092.17 237.733 1096.44 222L1124.04 231.6C1118.17 250.533 1107.37 265.467 1091.64 276.4C1075.9 287.067 1056.57 292.4 1033.64 292.4C1014.44 292.4 997.237 287.867 982.037 278.8C967.104 269.467 955.371 256.667 946.837 240.4C938.571 223.867 934.437 205.2 934.437 184.4ZM1095.64 163.6C1094.3 144.133 1088.04 128.667 1076.84 117.2C1065.64 105.733 1050.84 99.9999 1032.44 99.9999C1013.77 99.9999 998.437 105.733 986.437 117.2C974.437 128.667 966.837 144.133 963.637 163.6H1095.64ZM1220.04 292.4C1199.51 292.4 1182.71 287.067 1169.64 276.4C1156.58 265.467 1150.04 251.067 1150.04 233.2C1150.04 215.867 1156.04 201.867 1168.04 191.2C1180.31 180.533 1197.38 173.467 1219.24 170L1291.64 158.8V151.6C1291.64 134.8 1286.84 122.133 1277.24 113.6C1267.64 104.8 1255.11 100.4 1239.64 100.4C1223.11 100.4 1210.04 104.4 1200.44 112.4C1190.84 120.133 1184.31 130.8 1180.84 144.4L1154.04 135.6C1159.38 118.533 1169.24 104.533 1183.64 93.5999C1198.04 82.3999 1216.71 76.7999 1239.64 76.7999C1263.11 76.7999 1282.04 83.1999 1296.44 95.9999C1311.11 108.533 1318.44 126.4 1318.44 149.6V288.4H1291.64V249.6C1284.44 263.2 1274.44 273.733 1261.64 281.2C1249.11 288.667 1235.24 292.4 1220.04 292.4ZM1178.44 232.4C1178.44 243.6 1182.58 252.533 1190.84 259.2C1199.11 265.867 1209.78 269.2 1222.84 269.2C1240.98 269.2 1255.91 263.733 1267.64 252.8C1279.64 241.867 1287.64 228.667 1291.64 213.2V181.6L1222.84 192.8C1193.24 197.6 1178.44 210.8 1178.44 232.4ZM1366.75 80.7999H1393.55V117.6C1399.68 105.333 1407.95 95.4666 1418.35 87.9999C1428.75 80.5332 1440.75 76.7999 1454.35 76.7999C1459.68 76.7999 1463.55 77.0666 1465.95 77.5999V104C1463.28 103.467 1459.55 103.2 1454.75 103.2C1438.22 103.2 1424.75 109.2 1414.35 121.2C1403.95 133.2 1397.02 146.533 1393.55 161.2V288.4H1366.75V80.7999ZM1558.6 292.4C1534.06 292.4 1514.6 286.667 1500.2 275.2C1485.8 263.467 1477.13 248.8 1474.2 231.2L1499 218.8H1500.6C1503 234 1509 246 1518.6 254.8C1528.46 263.6 1541.8 268 1558.6 268C1572.2 268 1583.13 264.667 1591.4 258C1599.93 251.067 1604.2 242 1604.2 230.8C1604.2 213.2 1593 201.733 1570.6 196.4L1530.6 186.8C1515.4 183.067 1503.26 177.2 1494.2 169.2C1485.4 161.2 1481 149.333 1481 133.6C1481 122.933 1483.93 113.333 1489.8 104.8C1495.93 95.9999 1504.33 89.1999 1515 84.3999C1525.93 79.3332 1538.2 76.7999 1551.8 76.7999C1572.33 76.7999 1589.13 81.5999 1602.2 91.1999C1615.26 100.533 1623.8 113.6 1627.8 130.4L1602.2 140.4H1600.6C1598.46 127.6 1593 117.733 1584.2 110.8C1575.66 103.867 1564.86 100.4 1551.8 100.4C1539.26 100.4 1529.13 103.6 1521.4 110C1513.66 116.4 1509.8 124 1509.8 132.8C1509.8 147.733 1519.66 157.6 1539.4 162.4L1578.2 172C1595.53 176.533 1609 183.067 1618.6 191.6C1628.2 199.867 1633 212.933 1633 230.8C1633 249.2 1626.06 264.133 1612.2 275.6C1598.6 286.8 1580.73 292.4 1558.6 292.4Z" fill="white"/>
</svg>
