<svg preserveAspectRatio="none" width="100%" height="100%" overflow="visible" style="display: block;" viewBox="0 0 40 40" fill="none" xmlns="http://www.w3.org/2000/svg">
<g id="glasses">
<path id="Vector" d="M36.25 14.3758C36.25 14.3754 36.2496 14.375 36.2492 14.375H35.5812C35.4615 14.375 35.3445 14.3422 35.2397 14.2844C34.8921 14.0929 34.5267 13.9353 34.1484 13.8141C32.7734 13.3594 30.9578 13.125 28.75 13.125C26.5422 13.125 24.7266 13.3594 23.3547 13.8141C23.2503 13.8489 23.1515 13.884 23.0581 13.9193C22.1218 14.2721 21.0013 14.375 20.0008 14.375C18.9997 14.375 17.8801 14.2724 16.9434 13.9192C16.8499 13.884 16.7512 13.8489 16.6469 13.8141C15.2734 13.3594 13.4578 13.125 11.25 13.125C9.04218 13.125 7.22655 13.3594 5.85468 13.8141C5.69003 13.8668 5.5278 13.9265 5.3684 13.9929C4.85184 14.2079 4.30953 14.375 3.74999 14.375C3.41847 14.375 3.10053 14.5067 2.86611 14.7411C2.63169 14.9755 2.49999 15.2935 2.49999 15.625C2.49999 15.9565 2.63169 16.2745 2.86611 16.5089C3.10053 16.7433 3.41847 16.875 3.74999 16.875C3.75737 16.875 3.7634 16.8811 3.76357 16.8884C3.84247 20.432 4.26755 22.5629 5.17812 24.0805C5.74924 25.0615 6.62477 25.8295 7.67187 26.268C8.62733 26.6774 9.79843 26.8766 11.25 26.8766C13.1367 26.8766 15.8187 26.5867 17.3219 24.082C18.0323 22.8975 18.4483 21.3401 18.6334 19.0296C18.6577 18.727 18.7496 18.4285 18.75 18.125C18.75 17.7935 18.8817 17.4755 19.1161 17.2411C19.3505 17.0067 19.6685 16.875 20 16.875C20.3315 16.875 20.6495 17.0067 20.8839 17.2411C21.1183 17.4755 21.25 17.7935 21.25 18.125C21.2508 18.4275 21.3423 18.7249 21.3664 19.0265C21.5515 21.3378 21.9676 22.8957 22.6781 24.0805C23.2492 25.0615 24.1248 25.8295 25.1719 26.268C26.1273 26.6774 27.2984 26.8766 28.75 26.8766C30.6367 26.8766 33.3187 26.5867 34.8219 24.082C35.7324 22.5644 36.1591 20.4335 36.2364 16.89C36.2366 16.8826 36.2426 16.8766 36.25 16.8766C36.5815 16.8766 36.8995 16.7449 37.1339 16.5105C37.3683 16.276 37.5 15.9581 37.5 15.6266C37.5 15.295 37.3683 14.9771 37.1339 14.7427C36.8996 14.5084 36.582 14.3768 36.2508 14.3766C36.2503 14.3766 36.25 14.3762 36.25 14.3758Z" fill="var(--fill-0, #FF5F34)"/>
</g>
</svg>
