<svg preserveAspectRatio="none" width="100%" height="100%" overflow="visible" style="display: block;" viewBox="0 0 24 24" fill="none" xmlns="http://www.w3.org/2000/svg">
<g id="hand-drag">
<path id="Vector" d="M17.6126 5.36572V3.48571C17.6126 2.98711 17.4145 2.50892 17.0619 2.15635C16.7093 1.80379 16.2312 1.60571 15.7326 1.60571C15.2339 1.60571 14.7558 1.80379 14.4032 2.15635C14.0506 2.50892 13.8526 2.98711 13.8526 3.48571V2.54571C13.8179 2.07209 13.6054 1.62911 13.2576 1.30578C12.9097 0.982453 12.4524 0.802734 11.9776 0.802734C11.5027 0.802734 11.0454 0.982453 10.6976 1.30578C10.3497 1.62911 10.1372 2.07209 10.1026 2.54571V3.48571C10.0679 3.01209 9.85537 2.56911 9.50755 2.24578C9.15973 1.92246 8.70244 1.74274 8.22755 1.74274C7.75266 1.74274 7.29537 1.92246 6.94755 2.24578C6.59973 2.56911 6.38716 3.01209 6.35255 3.48571V10.0457C5.85925 10.0457 5.3708 10.1431 4.91518 10.3322C4.45955 10.5212 4.04571 10.7983 3.69736 11.1476C3.34901 11.4969 3.073 11.9115 2.88513 12.3676C2.69726 12.8237 2.60124 13.3124 2.60255 13.8057C2.60374 15.6414 3.17698 17.431 4.24255 18.9257L5.61255 20.8357C6.13304 21.5652 6.82015 22.1599 7.61675 22.5704C8.41334 22.9809 9.29642 23.1953 10.1926 23.1957H14.9826C15.8239 23.1971 16.6572 23.0325 17.4348 22.7114C18.2124 22.3904 18.9191 21.9192 19.5145 21.3248C20.1099 20.7303 20.5822 20.0244 20.9044 19.2472C21.2267 18.4701 21.3926 17.637 21.3926 16.7957V5.36572C21.4114 5.10797 21.3769 4.84911 21.2912 4.60531C21.2055 4.3615 21.0705 4.13797 20.8945 3.94869C20.7186 3.75941 20.5055 3.60844 20.2686 3.50521C20.0316 3.40197 19.776 3.34869 19.5176 3.34869C19.2591 3.34869 19.0035 3.40197 18.7666 3.50521C18.5296 3.60844 18.3166 3.75941 18.1406 3.94869C17.9646 4.13797 17.8296 4.3615 17.7439 4.60531C17.6582 4.84911 17.6237 5.10797 17.6426 5.36572H17.6126Z" stroke="var(--stroke-0, #BFC1C3)" stroke-width="1.5" stroke-linecap="round" stroke-linejoin="round"/>
<path id="Vector_2" d="M6.35254 10.0469V12.8669" stroke="var(--stroke-0, #BFC1C3)" stroke-width="1.5" stroke-linecap="round" stroke-linejoin="round"/>
<path id="Vector_3" d="M10.1025 8.17645V3.48645" stroke="var(--stroke-0, #BFC1C3)" stroke-width="1.5" stroke-linecap="round" stroke-linejoin="round"/>
<path id="Vector_4" d="M13.8525 8.17645V3.48645" stroke="var(--stroke-0, #BFC1C3)" stroke-width="1.5" stroke-linecap="round" stroke-linejoin="round"/>
<path id="Vector_5" d="M17.6123 8.17719V5.36719" stroke="var(--stroke-0, #BFC1C3)" stroke-width="1.5" stroke-linecap="round" stroke-linejoin="round"/>
</g>
</svg>
