<svg preserveAspectRatio="none" width="100%" height="100%" overflow="visible" style="display: block;" viewBox="0 0 1383 150" fill="none" xmlns="http://www.w3.org/2000/svg">
<path id="circle-line" opacity="0.16" d="M691.5 0.5C882.44 0.5 1055.3 8.89404 1180.41 22.4639C1242.97 29.2491 1293.58 37.327 1328.53 46.291C1346.02 50.7741 1359.56 55.4724 1368.72 60.3271C1373.3 62.7549 1376.76 65.2086 1379.06 67.6738C1381.37 70.1368 1382.5 72.5784 1382.5 75C1382.5 77.4216 1381.37 79.8632 1379.06 82.3262C1376.76 84.7914 1373.3 87.2451 1368.72 89.6729C1359.56 94.5276 1346.02 99.2259 1328.53 103.709C1293.58 112.673 1242.97 120.751 1180.41 127.536C1055.3 141.106 882.44 149.5 691.5 149.5C500.56 149.5 327.704 141.106 202.59 127.536C140.03 120.751 89.4232 112.673 54.4658 103.709C36.9831 99.2259 23.4426 94.5276 14.2832 89.6729C9.70289 87.2451 6.24388 84.7914 3.93555 82.3262C1.62938 79.8632 0.5 77.4216 0.5 75C0.5 72.5784 1.62938 70.1368 3.93555 67.6738C6.24388 65.2086 9.70289 62.7549 14.2832 60.3271C23.4426 55.4724 36.9831 50.7741 54.4658 46.291C89.4232 37.327 140.03 29.2491 202.59 22.4639C327.704 8.89404 500.56 0.5 691.5 0.5Z" stroke="url(#paint0_linear_0_72)"/>
<defs>
<linearGradient id="paint0_linear_0_72" x1="691.5" y1="150" x2="691.5" y2="0" gradientUnits="userSpaceOnUse">
<stop stop-color="white"/>
<stop offset="1" stop-color="white" stop-opacity="0"/>
</linearGradient>
</defs>
</svg>
