<svg preserveAspectRatio="none" width="100%" height="100%" overflow="visible" style="display: block;" viewBox="0 0 40 40" fill="none" xmlns="http://www.w3.org/2000/svg">
<g id="logo" clip-path="url(#clip0_0_50)">
<path id="Vector" d="M0 0H15.8693H19.0998C19.325 0.132939 20.082 0.130557 20.3829 0.194071C20.5001 0.218824 20.8753 0.309498 20.9677 0.319267L21.0357 0.380441C20.9532 0.424453 20.5338 0.362475 20.4037 0.357703C20.0555 0.344429 19.7068 0.353044 19.3597 0.383495C17.4419 0.546484 15.3621 1.29469 13.6984 2.26496C13.5855 2.33083 13.1045 2.63571 13.0096 2.72069C9.37207 4.6525 6.87766 7.7357 5.67367 11.6696C4.37797 15.9042 4.80273 20.4789 6.85594 24.4026C8.48199 27.4546 11.177 29.9664 14.5236 30.9806C16.9364 31.7118 19.7345 31.4332 22.2881 31.4887C23.4546 31.6701 24.5291 32.1584 25.4882 32.8396C25.6554 32.9584 25.8729 33.1091 25.9874 33.2777L25.8075 33.2794L20.1928 33.278C18.7748 33.2784 17.1483 33.3196 15.7565 33.1909C11.7391 32.8473 7.96715 31.114 5.08992 28.2893C2.42269 25.6558 0.64298 22.2354 0.155957 18.4995C0.0656141 17.8066 0.0694789 17.0765 0.0651773 16.378C-0.00251145 16.6552 0.101676 17.1832 0 17.5228V0Z" fill="var(--fill-0, #FF5F34)"/>
<path id="Vector_2" d="M20.9677 0.319271C21.4111 0.326461 22.4182 0.636032 22.8734 0.770438C29.0524 2.59484 34.5799 7.75715 35.332 14.3741C35.5121 15.9584 35.3858 17.6419 35.4259 19.2388C35.4708 22.1033 35.3687 25.0614 35.4303 27.9174C33.2195 26.4617 31.3424 24.0841 30.8396 21.4613C30.5228 19.809 30.7045 17.6643 30.64 15.924C30.4628 11.1441 28.2237 6.37649 24.1684 3.68257C21.65 1.98904 18.5614 1.36672 15.5837 1.95285C14.6092 2.15199 13.9149 2.45197 13.0096 2.72069C13.1045 2.63571 13.5855 2.33084 13.6984 2.26497C15.3621 1.2947 17.4419 0.546489 19.3597 0.383499C19.7068 0.353048 20.0555 0.344434 20.4037 0.357707C20.5338 0.362479 20.9532 0.424457 21.0357 0.380446L20.9677 0.319271Z" fill="var(--fill-0, white)"/>
<path id="Vector_3" d="M22.2881 31.4887C25.8182 31.4555 29.477 31.1857 32.5188 33.286C33.4784 33.9485 34.4759 34.8551 35.3368 35.6558C36.8347 37.049 38.4678 38.4223 39.9418 39.8266C39.6762 39.8766 38.8757 39.9141 38.748 40H37.1112C37.097 39.9894 35.3888 39.6832 35.1676 39.6328C32.5684 39.0397 30.4389 37.3496 28.5752 35.5809C28.052 35.0843 26.2566 33.3737 25.9874 33.2777C25.8729 33.1091 25.6554 32.9583 25.4883 32.8396C24.5291 32.1583 23.4547 31.6701 22.2881 31.4887Z" fill="var(--fill-0, white)"/>
<path id="Vector_4" d="M17.706 11.618C17.7444 11.615 17.7828 11.6131 17.8213 11.6123C20.0839 11.5789 21.1836 12.697 21.2158 14.9185L19.0931 14.9236C19.0849 14.6773 19.0743 14.4187 19.0311 14.176C18.9724 13.8468 18.8434 13.5134 18.555 13.3206C18.2875 13.1419 17.8573 13.0896 17.5475 13.1599C17.2595 13.2252 17.0237 13.4021 16.8691 13.653C16.2564 14.6476 16.3635 18.4793 16.6395 19.6153C16.7283 19.9808 16.8777 20.3596 17.2178 20.5596C17.7394 20.8664 18.5245 20.6727 19.0694 20.524L19.0684 18.2433L17.9016 18.2434C17.9086 17.7954 17.8651 17.1416 17.9121 16.7137C18.0322 16.6405 18.0671 16.6682 18.2324 16.6686L21.2115 16.6652L21.2143 21.8614C19.4695 22.101 16.9823 22.627 15.4216 21.4949C14.7141 20.9817 14.3699 19.5695 14.3574 18.7311C14.3285 16.7979 13.9742 14.228 15.2168 12.5939C15.7752 11.8764 16.8764 11.6685 17.706 11.618Z" fill="var(--fill-0, white)"/>
<path id="Vector_5" d="M25.3902 11.6184C25.4651 11.6142 25.5401 11.6121 25.6152 11.612C27.8196 11.6085 28.5998 12.54 28.5988 14.68L26.5207 14.676C26.5288 14.2632 26.4722 13.6942 26.1732 13.4085C25.4942 12.7597 24.3597 13.2611 24.3988 14.2178C24.4314 15.0138 25.0411 15.3978 25.6527 15.7531C26.7353 16.382 28.061 16.9179 28.5346 18.1802C28.8835 19.1511 28.7615 20.5768 27.9997 21.3356C27.2384 22.0941 26.1398 22.1843 25.1279 22.1918C25.1125 22.1917 25.097 22.1915 25.0816 22.1912C22.7797 22.1356 22.0294 21.0805 22.1061 18.8667L24.2298 18.8621C24.229 18.8888 24.2285 18.9154 24.2285 18.942C24.2255 19.8198 24.3834 20.682 25.4579 20.6948C26.123 20.7026 26.625 20.0925 26.558 19.4546C26.4428 18.3571 24.9893 17.8598 24.1928 17.3159C23.8371 17.1208 23.591 16.8985 23.2699 16.6523C22.0361 15.7067 21.9118 13.7104 22.8675 12.5318C23.414 11.8578 24.5064 11.6677 25.3902 11.6184Z" fill="var(--fill-0, white)"/>
<path id="Vector_6" d="M10.2234 11.6186C10.2953 11.6142 10.3673 11.6119 10.4394 11.6118C12.6607 11.6065 13.4408 12.538 13.4385 14.6772L11.3679 14.6767C11.3441 14.2443 11.3198 13.6848 10.9909 13.3854C10.2837 12.7416 9.17855 13.3045 9.23644 14.2539C9.25226 15.0479 10.049 15.5122 10.6803 15.8602C12.0895 16.6369 13.5398 17.3295 13.5512 19.1763C13.5657 21.558 12.1353 22.1627 10.0148 22.1925L9.93355 22.1912C7.59327 22.1452 6.8857 21.0798 6.94882 18.8657L9.06753 18.8626C9.06671 18.8901 9.06628 18.9175 9.0662 18.945C9.06527 19.1771 9.0805 19.4113 9.11027 19.642C9.30741 21.171 11.4957 20.9849 11.3949 19.4355C11.3473 18.7038 10.5044 18.1783 9.92624 17.8433C8.67132 17.1162 7.1487 16.3218 7.0812 14.673C7.0512 13.9384 7.2012 13.0885 7.7114 12.528C8.35671 11.8191 9.31472 11.6693 10.2234 11.6186Z" fill="var(--fill-0, white)"/>
</g>
<defs>
<clipPath id="clip0_0_50">
<rect width="40" height="40" fill="white"/>
</clipPath>
</defs>
</svg>
