<svg preserveAspectRatio="none" width="100%" height="100%" overflow="visible" style="display: block;" viewBox="0 0 8400 1600" fill="none" xmlns="http://www.w3.org/2000/svg">
<g id="Ellipse 1329130913" filter="url(#filter0_f_0_83)">
<ellipse cx="4200" cy="800" rx="4000" ry="600" fill="var(--fill-0, #080911)"/>
<path d="M4200 250C5302.88 250 6300.29 317.074 7021.01 425.183C7381.76 479.295 7670.99 543.373 7868.95 613.577C7968.23 648.788 8041.59 684.524 8089.17 719.405C8138.13 755.291 8150 782.734 8150 800C8150 817.266 8138.13 844.709 8089.17 880.595C8041.59 915.476 7968.23 951.212 7868.95 986.423C7670.99 1056.63 7381.76 1120.71 7021.01 1174.82C6300.29 1282.93 5302.88 1350 4200 1350C3097.12 1350 2099.71 1282.93 1378.99 1174.82C1018.24 1120.71 729.01 1056.63 531.052 986.423C431.767 951.212 358.411 915.476 310.826 880.595C261.871 844.709 250 817.266 250 800C250 782.734 261.871 755.291 310.826 719.405C358.411 684.524 431.767 648.788 531.052 613.577C729.01 543.373 1018.24 479.295 1378.99 425.183C2099.71 317.074 3097.12 250 4200 250Z" stroke="var(--stroke-0, #FF0105)" stroke-width="100"/>
</g>
<defs>
<filter id="filter0_f_0_83" x="0" y="0" width="8400" height="1600" filterUnits="userSpaceOnUse" color-interpolation-filters="sRGB">
<feFlood flood-opacity="0" result="BackgroundImageFix"/>
<feBlend mode="normal" in="SourceGraphic" in2="BackgroundImageFix" result="shape"/>
<feGaussianBlur stdDeviation="100" result="effect1_foregroundBlur_0_83"/>
</filter>
</defs>
</svg>
