<svg preserveAspectRatio="none" width="100%" height="100%" overflow="visible" style="display: block;" viewBox="0 0 81 81" fill="none" xmlns="http://www.w3.org/2000/svg">
<g id="logo" clip-path="url(#clip0_0_73)">
<path id="Vector" d="M0 0H32.1352H38.6772C39.1332 0.269202 40.666 0.264378 41.2753 0.392995C41.5127 0.443119 42.2724 0.626734 42.4597 0.646515L42.5974 0.770394C42.4302 0.859518 41.581 0.734011 41.3175 0.724348C40.6124 0.697469 39.9063 0.714914 39.2034 0.776577C35.3198 1.10663 31.1083 2.62175 27.7393 4.58655C27.5107 4.71994 26.5367 5.33731 26.3444 5.50939C18.9784 9.42131 13.9273 15.6648 11.4892 23.6309C8.86539 32.206 9.72554 41.4697 13.8833 49.4152C17.176 55.5957 22.6334 60.6821 29.4103 62.7357C34.2962 64.2164 39.9624 63.6522 45.1335 63.7646C47.4957 64.132 49.6714 65.1207 51.6137 66.5002C51.9522 66.7407 52.3925 67.046 52.6244 67.3873L52.2602 67.3908L40.8904 67.388C38.0189 67.3888 34.7253 67.4721 31.9069 67.2116C23.7717 66.5159 16.1335 63.0059 10.3071 57.2858C4.90594 51.953 1.30204 45.0266 0.315812 37.4616C0.132868 36.0583 0.140695 34.5799 0.131984 33.1655C-0.00508568 33.7267 0.205894 34.7961 0 35.4836V0Z" fill="var(--fill-0, #FF5F34)"/>
<path id="Vector_2" d="M42.4597 0.646524C43.3574 0.661083 45.3969 1.28796 46.3187 1.56014C58.8311 5.25455 70.0243 15.7082 71.5474 29.1075C71.912 32.3157 71.6563 35.7249 71.7374 38.9585C71.8284 44.7592 71.6216 50.7493 71.7463 56.5326C67.2695 53.5849 63.4684 48.7702 62.4502 43.4592C61.8087 40.1131 62.1767 35.7703 62.0461 32.2461C61.6872 22.5668 57.1529 12.9124 48.941 7.45721C43.8412 4.0278 37.5868 2.76761 31.5569 3.95452C29.5836 4.35778 28.1777 4.96523 26.3444 5.5094C26.5367 5.33732 27.5106 4.71994 27.7393 4.58655C31.1083 2.62176 35.3198 1.10664 39.2034 0.776586C39.9063 0.714922 40.6124 0.697478 41.3175 0.724357C41.581 0.73402 42.4302 0.859526 42.5974 0.770403L42.4597 0.646524Z" fill="var(--fill-0, white)"/>
<path id="Vector_3" d="M45.1335 63.7646C52.2818 63.6973 59.6908 63.151 65.8506 67.4041C67.7937 68.7458 69.8137 70.5816 71.5569 72.203C74.5903 75.0243 77.8973 77.8052 80.8822 80.6488C80.3443 80.75 78.7233 80.826 78.4647 81H75.1501C75.1213 80.9786 71.6622 80.3585 71.2144 80.2564C65.951 79.0553 61.6388 75.633 57.8647 72.0512C56.8052 71.0457 53.1697 67.5817 52.6245 67.3873C52.3925 67.046 51.9523 66.7407 51.6137 66.5002C49.6714 65.1207 47.4957 64.132 45.1335 63.7646Z" fill="var(--fill-0, white)"/>
<path id="Vector_4" d="M35.8547 23.5265C35.9324 23.5204 36.0102 23.5166 36.0881 23.515C40.6698 23.4474 42.8967 25.7114 42.962 30.21L38.6635 30.2202C38.647 29.7215 38.6254 29.1978 38.5379 28.7064C38.4191 28.0398 38.158 27.3645 37.5739 26.9742C37.0322 26.6123 36.1611 26.5064 35.5338 26.6488C34.9506 26.781 34.473 27.1393 34.16 27.6474C32.9192 29.6614 33.136 37.4206 33.695 39.7211C33.8749 40.4611 34.1773 41.2283 34.866 41.6333C35.9223 42.2544 37.5122 41.8623 38.6155 41.5611L38.6136 36.9427L36.2507 36.9428C36.265 36.0357 36.1768 34.7118 36.2719 33.8453C36.5153 33.697 36.5859 33.7531 36.9207 33.7539L42.9533 33.7471L42.959 44.2693C39.4258 44.7545 34.3892 45.8197 31.2287 43.5271C29.796 42.4879 29.0991 39.6283 29.0737 37.9304C29.0153 34.0157 28.2978 28.8116 30.814 25.5026C31.9448 24.0497 34.1746 23.6287 35.8547 23.5265Z" fill="var(--fill-0, white)"/>
<path id="Vector_5" d="M51.4151 23.5273C51.5668 23.5188 51.7187 23.5145 51.8708 23.5143C56.3348 23.5073 57.9147 25.3935 57.9126 29.7271L53.7043 29.7189C53.7208 28.8829 53.6062 27.7307 53.0008 27.1523C51.6257 25.8383 49.3284 26.8536 49.4076 28.791C49.4735 30.403 50.7083 31.1805 51.9467 31.8999C54.1389 33.1735 56.8235 34.2588 57.7826 36.8149C58.489 38.781 58.2421 41.6679 56.6994 43.2046C55.1577 44.7406 52.9331 44.9232 50.884 44.9383C50.8527 44.9382 50.8215 44.9378 50.7902 44.9371C46.1289 44.8246 44.6096 42.688 44.7648 38.205L49.0653 38.1958C49.0638 38.2497 49.0628 38.3037 49.0627 38.3576C49.0566 40.1352 49.3764 41.8811 51.5523 41.9069C52.899 41.9228 53.9156 40.6872 53.78 39.3956C53.5467 37.1731 50.6032 36.166 48.9905 35.0647C48.2701 34.6697 47.7719 34.2194 47.1215 33.721C44.6231 31.8061 44.3714 27.7635 46.3066 25.377C47.4134 24.0121 49.6254 23.6271 51.4151 23.5273Z" fill="var(--fill-0, white)"/>
<path id="Vector_6" d="M20.7024 23.5277C20.848 23.5187 20.9939 23.5141 21.1397 23.514C25.6379 23.5032 27.2176 25.3895 27.2129 29.7213L23.02 29.7204C22.9719 28.8447 22.9226 27.7117 22.2566 27.1053C20.8245 25.8017 18.5866 26.9416 18.7038 28.8641C18.7358 30.4721 20.3493 31.4122 21.6277 32.1169C24.4812 33.6898 27.4182 35.0921 27.4411 38.8319C27.4706 43.655 24.574 44.8795 20.28 44.9399L20.1154 44.9371C15.3764 44.8441 13.9435 42.6866 14.0714 38.2031L18.3618 38.1968C18.3601 38.2524 18.3592 38.308 18.3591 38.3636C18.3572 38.8336 18.388 39.3079 18.4483 39.775C18.8475 42.8713 23.2787 42.4945 23.0747 39.3569C22.9783 37.8752 21.2714 36.8111 20.1006 36.1327C17.5594 34.6603 14.4761 33.0516 14.3394 29.7128C14.2787 28.2253 14.5824 26.5042 15.6156 25.3692C16.9223 23.9336 18.8623 23.6304 20.7024 23.5277Z" fill="var(--fill-0, white)"/>
</g>
<defs>
<clipPath id="clip0_0_73">
<rect width="81" height="81" fill="white"/>
</clipPath>
</defs>
</svg>
