<svg preserveAspectRatio="none" width="100%" height="100%" overflow="visible" style="display: block;" viewBox="0 0 8400 2369.51" fill="none" xmlns="http://www.w3.org/2000/svg">
<g id="Ellipse 1329130913" filter="url(#filter0_f_0_54)">
<path d="M8200 1772.33C8200 2640.7 5404.5 1814.5 4200 1814.5C2995.5 1814.5 200 2640.7 200 1772.33C200 903.954 1990.86 200 4200 200C6409.14 200 8200 903.954 8200 1772.33Z" fill="var(--fill-0, #080911)"/>
<path d="M4200 250C5299.93 250 6293.44 425.339 7010.14 707.058C7368.63 847.977 7655.36 1014.54 7851.62 1196.93C8047.82 1379.26 8150 1573.74 8150 1772.33C8150 1864.99 8113.82 1932.54 8047.07 1983.8C7977.82 2036.99 7873.4 2074.12 7736.53 2095.88C7463 2139.37 7081.92 2118.36 6657.42 2069.38C6233.76 2020.5 5773.1 1944.62 5340.47 1880.56C4909.46 1816.74 4505.36 1764.5 4200 1764.5C3894.64 1764.5 3490.54 1816.74 3059.53 1880.56C2626.9 1944.62 2166.24 2020.5 1742.58 2069.38C1318.08 2118.36 936.998 2139.37 663.468 2095.88C526.6 2074.12 422.183 2036.99 352.928 1983.8C286.183 1932.54 250 1864.99 250 1772.33C250 1573.74 352.184 1379.26 548.378 1196.93C744.64 1014.54 1031.37 847.977 1389.86 707.058C2106.56 425.339 3100.07 250 4200 250Z" stroke="var(--stroke-0, #D10026)" stroke-width="100"/>
</g>
<defs>
<filter id="filter0_f_0_54" x="0" y="0" width="8400" height="2369.51" filterUnits="userSpaceOnUse" color-interpolation-filters="sRGB">
<feFlood flood-opacity="0" result="BackgroundImageFix"/>
<feBlend mode="normal" in="SourceGraphic" in2="BackgroundImageFix" result="shape"/>
<feGaussianBlur stdDeviation="100" result="effect1_foregroundBlur_0_54"/>
</filter>
</defs>
</svg>
